# xmcd
#
# Track frame offsets:
#	150
#	18273
#	27055
#	37451
#	53021
#	71103
#	88399
#	99841
#	110466
#	122661
#	133623
#	156766
#	171063
#	184568
#	196878
#	208283
#
# Disc length: 2972 seconds
#
# Revision: 1
# Processed by: cddbd v1.4PL0 Copyright (c) Steve Scherf et al.
# Submitted via: audiograbber 1.82.02
#
DISCID=dc0b9a10
DTITLE=Drake - Drake Unplugged
DYEAR=2003
DGENRE=Country
TTITLE0=Your song
TTITLE1=Dear penis
TTITLE2=Das Gedicht
TTITLE3=I'm Sorry
TTITLE4=If tomorrow never come
TTITLE5=Knocking on heavens door
TTITLE6=Mixed and Emoion Song
TTITLE7=Perhaps love
TTITLE8=Scarbough fair
TTITLE9=She's ever woman
TTITLE10=Streets of London
TTITLE11=The thunder rolls
TTITLE12=When you say nothing at all
TTITLE13=When I feel inside
TTITLE14=Halt mich
TTITLE15=Timeless
EXTD=
EXTT0=
EXTT1=
EXTT2=
EXTT3=
EXTT4=
EXTT5=
EXTT6=
EXTT7=
EXTT8=
EXTT9=
EXTT10=
EXTT11=
EXTT12=
EXTT13=
EXTT14=
EXTT15=
PLAYORDER=
